<?xml version="1.0" encoding="UTF-8" standalone="no"?>
<svg
   height="150"
   version="1.1"
   viewBox="0 0 150 150"
   width="150"
   id="svg1"
   sodipodi:docname="icon.svg"
   inkscape:version="1.4 (e7c3feb, 2024-10-09)"
   xmlns:inkscape="http://www.inkscape.org/namespaces/inkscape"
   xmlns:sodipodi="http://sodipodi.sourceforge.net/DTD/sodipodi-0.dtd"
   xmlns="http://www.w3.org/2000/svg"
   xmlns:svg="http://www.w3.org/2000/svg">
  <sodipodi:namedview
     id="namedview1"
     pagecolor="#ffffff"
     bordercolor="#000000"
     borderopacity="0.25"
     inkscape:showpageshadow="2"
     inkscape:pageopacity="0.0"
     inkscape:pagecheckerboard="0"
     inkscape:deskcolor="#d1d1d1"
     inkscape:zoom="3.4416213"
     inkscape:cx="60.146071"
     inkscape:cy="84.117332"
     inkscape:window-width="1534"
     inkscape:window-height="831"
     inkscape:window-x="0"
     inkscape:window-y="0"
     inkscape:window-maximized="1"
     inkscape:current-layer="svg1" />
  <title
     id="title1" />
  <desc
     id="desc1" />
  <defs
     id="defs1" />
  <g
     fill="none"
     fill-rule="evenodd"
     id="Page-1"
     stroke="none"
     stroke-width="1"
     transform="matrix(3.5190428,0,0,3.5190428,13.168563,18.317137)"
     style="display:inline">
    <g
       fill="#157efb"
       id="icon-48-notebook">
      <path
         d="M 9.9974219,3 C 8.8942763,3 8,3.8983383 8,5.0073299 V 27.99267 C 8,29.101288 8.8909254,30 9.9974219,30 H 25.002578 C 26.105724,30 27,29.101662 27,27.99267 V 5.0073299 C 27,3.8987122 26.109075,3 25.002578,3 Z M 6,10 v 1 h 2 v -1 z m 0,4 v 1 H 8 V 14 Z M 6,6 V 7 H 8 V 6 Z m 0,16 v 1 h 2 v -1 z m 0,4 v 1 h 2 v -1 z m 0,-8 v 1 h 2 v -1 z m 2,-8 v 1 h 2 v -1 z m 0,4 v 1 h 2 V 14 Z M 8,6 v 1 h 2 V 6 Z m 0,16 v 1 h 2 v -1 z m 0,4 v 1 h 2 v -1 z m 0,-8 v 1 h 2 V 18 Z M 12,8 V 9 H 23 V 8 Z m 1,4 v 1 h 9 v -1 z"
         id="notebook" />
    </g>
  </g>
</svg>
