<?xml version="1.0" standalone="no"?>
<!DOCTYPE svg PUBLIC "-//W3C//DTD SVG 20010904//EN"
 "http://www.w3.org/TR/2001/REC-SVG-20010904/DTD/svg10.dtd">
<svg version="1.0" xmlns="http://www.w3.org/2000/svg"
 width="256.000000pt" height="256.000000pt" viewBox="0 0 256.000000 256.000000"
 preserveAspectRatio="xMidYMid meet">
<metadata>
Created by potrace 1.11, written by Peter Selinger 2001-2013
</metadata>
<g transform="translate(0.000000,256.000000) scale(0.100000,-0.100000)"
fill="#000000" stroke="none">
<path d="M746 2310 c-67 -21 -106 -87 -106 -182 l0 -48 -80 0 -80 0 0 -40 0
-40 80 0 80 0 0 -120 0 -120 -80 0 -80 0 0 -40 0 -40 80 0 80 0 0 -120 0 -120
-80 0 -80 0 0 -40 0 -40 80 0 80 0 0 -120 0 -120 -80 0 -80 0 0 -40 0 -40 80
0 80 0 0 -120 0 -120 -80 0 -80 0 0 -40 0 -40 80 0 80 0 0 -120 0 -120 -80 0
-80 0 0 -40 0 -40 79 0 79 0 4 -70 c4 -74 19 -105 72 -144 27 -21 39 -21 671
-24 716 -3 689 -5 741 64 l29 37 0 978 0 977 -31 39 c-17 21 -46 43 -65 50
-41 14 -1266 17 -1313 3z m54 -270 l0 -40 -80 0 -80 0 0 40 0 40 80 0 80 0 0
-40z m1040 -160 l0 -40 -440 0 -440 0 0 40 0 40 440 0 440 0 0 -40z m-1040
-160 l0 -40 -80 0 -80 0 0 40 0 40 80 0 80 0 0 -40z m960 -160 l0 -40 -360 0
-360 0 0 40 0 40 360 0 360 0 0 -40z m-960 -160 l0 -40 -80 0 -80 0 0 40 0 40
80 0 80 0 0 -40z m0 -320 l0 -40 -80 0 -80 0 0 40 0 40 80 0 80 0 0 -40z m0
-320 l0 -40 -80 0 -80 0 0 40 0 40 80 0 80 0 0 -40z m0 -320 l0 -40 -80 0 -80
0 0 40 0 40 80 0 80 0 0 -40z"/>
</g>
</svg>
